<?xml version="1.0" encoding="utf-8"?>
<!-- Generator: Adobe Illustrator 21.0.0, SVG Export Plug-In . SVG Version: 6.00 Build 0)  -->
<svg version="1.1" id="图层_1" xmlns="http://www.w3.org/2000/svg" xmlns:xlink="http://www.w3.org/1999/xlink" x="0px" y="0px"
	 viewBox="0 0 612 792" style="enable-background:new 0 0 612 792;" xml:space="preserve">
<style type="text/css">
	.st0{fill:#E81E63;}
	.st1{fill:#FEFEFE;}
</style>
<g>
	<g>
		<path class="st0" d="M478,653c-9,0-18,0-27,0c-7.1-1.9-14.3-3.3-21.3-5.9c-23.5-8.6-40.6-24.5-52.6-46c-8-14.4-11.9-30-11.1-46.6
			c0.1-2.5,0.1-4.5-2.9-6c-49.3-24.7-98.6-49.6-147.8-74.4c-2.1-1.1-3.5-1-5.6,0.7c-15.9,13-34.4,19.9-54.7,21.1
			c-20.2,1.2-39.2-3.6-56.7-14.1c-19.6-11.9-33.1-28.7-41.5-50c-2.2-5.5-2.2-11.8-5.8-16.8c0-12.3,0-24.7,0-37
			c1.7-0.6,1.7-2,2.1-3.5c7.6-30,24.9-52.6,52.8-66.4c20.3-10,41.8-12.9,64-8c13.9,3.1,27,8.7,38.2,17.7c3.8,3.1,6.1,2.7,9.8,0.8
			c16.1-8.4,32.2-16.6,48.4-24.7c31.8-16,63.6-32,95.5-47.8c3.4-1.7,4.5-3.6,4.3-7.1c-0.7-15.4,3-29.8,9.8-43.5
			c5.8-11.7,13.6-21.8,23.4-30.4c10.7-9.5,22.7-16.1,36.4-20.3c5.1-1.6,10.4-2,15.3-3.8c9,0,18,0,27,0c0.2,0.8,0.8,0.9,1.5,1
			c9.5,0.4,18.1,3.9,26.5,7.6c12.9,5.8,24,14.2,33.3,25.1c9.2,10.7,15.7,22.6,19.8,36c1.6,5.1,2.1,10.3,3.8,15.3c0,9,0,18,0,27
			c-1.5,6-2.7,12.2-4.7,18.1c-6.5,19.5-18.2,35.2-34.5,47.6c-23.4,17.7-49.9,22.6-78.1,17.9c-15.1-2.5-28.8-9.1-40.7-19.1
			c-2.3-1.9-4.4-2.1-7.3-0.6c-24.4,12.8-49.4,24.6-73.8,37.5c-23.9,12.5-48.1,24.3-72.3,36.2c-3.1,1.5-3.8,3.3-3.7,6.4
			c0.1,3,0.5,4.8,3.7,6.4c26.6,13.5,53.6,26.4,80,40.4c21.6,11.5,43.8,22,65.7,33c3,1.5,5.5,1.4,8.1-0.6
			c13.4-10.4,28.2-17.1,45.2-19.3c19.7-2.5,38.6-0.2,56.5,8.3c12.2,5.8,22.7,13.9,31.7,24.2c9.4,10.7,16.1,22.8,20.3,36.4
			c1.6,5.1,2,10.4,3.8,15.3c0,9,0,18,0,27c-0.8,0.2-0.9,0.8-1,1.5c-0.4,9.5-3.9,18.1-7.6,26.5c-5.8,12.9-14.2,24-25.1,33.3
			c-10.7,9.2-22.6,15.7-36,19.8C488.2,650.8,483,651.2,478,653z"/>
		<path class="st1" d="M51,415c3.6,5,3.6,11.2,5.8,16.8c8.3,21.3,21.8,38.1,41.5,50c17.5,10.5,36.5,15.4,56.7,14.1
			c20.3-1.2,38.8-8.1,54.7-21.1c2.1-1.7,3.5-1.8,5.6-0.7c49.3,24.9,98.5,49.7,147.8,74.4c3,1.5,3,3.5,2.9,6
			c-0.7,16.6,3.2,32.3,11.1,46.6c11.9,21.5,29,37.4,52.6,46c7,2.6,14.2,4,21.3,5.9c-131.9,0-263.8,0-395.7,0.1
			c-3.4,0-4.4-0.5-4.4-4.3C51,570.9,51,492.9,51,415z"/>
		<path class="st1" d="M451,141c-5,1.8-10.3,2.3-15.3,3.8c-13.6,4.2-25.7,10.9-36.4,20.3c-9.8,8.7-17.7,18.7-23.4,30.4
			c-6.8,13.7-10.5,28.1-9.8,43.5c0.2,3.6-0.9,5.4-4.3,7.1C329.8,261.9,298,278,266.2,294c-16.2,8.1-32.3,16.4-48.4,24.7
			c-3.6,1.9-6,2.3-9.8-0.8c-11.1-9-24.2-14.7-38.2-17.7c-22.2-4.9-43.7-2-64,8c-27.9,13.8-45.1,36.3-52.8,66.4
			c-0.4,1.5-0.3,2.9-2.1,3.5c0-77.6,0-155.2-0.1-232.8c0-3.8,1-4.3,4.4-4.3C187.2,141,319.1,141,451,141z"/>
		<path class="st1" d="M563,541c-1.8-5-2.3-10.3-3.8-15.3c-4.2-13.6-10.9-25.7-20.3-36.4c-9-10.2-19.5-18.4-31.7-24.2
			c-17.9-8.5-36.8-10.8-56.5-8.3c-17,2.2-31.9,8.9-45.2,19.3c-2.6,2.1-5.1,2.2-8.1,0.6c-21.9-11-44-21.5-65.7-33
			c-26.4-14-53.4-26.8-80-40.4c-3.2-1.6-3.6-3.4-3.7-6.4c-0.1-3.1,0.6-4.8,3.7-6.4c24.2-11.9,48.4-23.7,72.3-36.2
			c24.4-12.8,49.4-24.6,73.8-37.5c2.9-1.5,5-1.3,7.3,0.6c11.9,10,25.6,16.6,40.7,19.1c28.2,4.6,54.7-0.2,78.1-17.9
			c16.3-12.4,28-28.1,34.5-47.6c2-5.9,3.1-12.1,4.7-18.1C563,349,563,445,563,541z"/>
		<path class="st1" d="M563,226c-1.8-5-2.2-10.2-3.8-15.3c-4.2-13.4-10.7-25.3-19.8-36c-9.3-10.9-20.4-19.3-33.3-25.1
			c-8.4-3.8-17.1-7.3-26.5-7.6c-0.7,0-1.3-0.2-1.5-1c27.3,0,54.7,0,82-0.1c2.5,0,3.1,0.6,3.1,3.1C563,171.3,563,198.7,563,226z"/>
		<path class="st1" d="M478,653c5-1.8,10.2-2.2,15.3-3.8c13.4-4.2,25.3-10.7,36-19.8c10.9-9.3,19.3-20.4,25.1-33.3
			c3.8-8.4,7.3-17.1,7.6-26.5c0-0.7,0.2-1.3,1-1.5c0,27.3,0,54.7,0.1,82c0,2.5-0.6,3.1-3.1,3.1C532.7,653,505.3,653,478,653z"/>
	</g>
</g>
</svg>
